<svg class="svg-small-icon" xmlns="http://www.w3.org/2000/svg" viewBox="0 0 81.04 73.44" fill="#ffcc26">
  <path fill="#ffcc26" d="M25.35,89c-1,0-2,0-3-.11a3.48,3.48,0,0,1-1.28-6.6,21,21,0,0,0,7.55-6.07C16.59,70.38,9,59.74,9,48.24c0-18,18.18-32.67,40.52-32.67S90,30.23,90,48.24,71.86,80.92,49.52,80.92c-.53,0-1.05,0-1.57,0C42.22,86.14,34.26,89,25.35,89ZM49.52,22.54C31,22.54,16,34.07,16,48.24c0,9.73,7.44,18.8,19,23.1a3.49,3.49,0,0,1,1.89,4.83l-.2.41c-.21.45-.43.89-.69,1.33a26.3,26.3,0,0,1-2.07,3,23,23,0,0,0,10.26-6,3.62,3.62,0,0,1,2.72-1c.88.06,1.78.11,2.69.11C68,74,83.07,62.42,83.07,48.24s-15-25.7-33.55-25.7Z" transform="translate(-9 -15.57)"></path>
</svg>