<svg class="svg-small-icon" xmlns="http://www.w3.org/2000/svg" viewBox="0 0 80.26 58.38" fill="#ffcc26">
  <g fill="#ffcc26">
    <path d="M50.48,74.13c-18.42,0-34.48-11.29-40-28.1a3.5,3.5,0,0,1,0-2.17c5.49-16.81,21.55-28.11,40-28.11s34.47,11.3,40,28.11a3.5,3.5,0,0,1,0,2.17c-5.49,16.81-21.55,28.1-40,28.1Zm-33-29.19c4.87,13.34,18,22.22,33,22.22s28.08-8.88,33-22.22c-4.88-13.34-18-22.22-33-22.22s-28.09,8.88-33,22.22Z" transform="translate(-10.35 -15.75)"/>
    <path d="M50.48,63.83A18.91,18.91,0,0,1,31.59,44.94a3.49,3.49,0,0,1,7,0A11.91,11.91,0,1,0,50.48,33a3.49,3.49,0,1,1,0-7,18.88,18.88,0,0,1,0,37.76Z" transform="translate(-10.35 -15.75)"/>
  </g>
</svg>