<svg id="Слой_1" data-name="Слой 1" xmlns="http://www.w3.org/2000/svg" viewBox="0 0 82.07 82.09"><defs><style>.cls-1{fill:#707070;}</style></defs><title>стрелка вправо</title><path class="cls-1" d="M50.83,97.46a41,41,0,0,1-29-70.07,41,41,0,0,1,58,58,40.77,40.77,0,0,1-29,12Zm0-75.12a34.07,34.07,0,1,0,24.09,10,33.87,33.87,0,0,0-24.09-10Z" transform="translate(-9.79 -15.37)"/><path class="cls-1" d="M42.4,76.77a3.49,3.49,0,0,1-2.47-6L54.34,56.41,39.93,42a3.49,3.49,0,0,1,4.93-4.93L61.74,54a3.49,3.49,0,0,1,0,4.93L44.86,75.75a3.47,3.47,0,0,1-2.46,1Z" transform="translate(-9.79 -15.37)"/></svg>