<svg id="Слой_1" data-name="Слой 1" xmlns="http://www.w3.org/2000/svg" viewBox="0 0 82.06 82.09"><defs><style>.cls-1{fill:#707070;}</style></defs><title>стрелка вверх</title><path class="cls-1" d="M51.56,97.46a41,41,0,1,1,29-12,40.75,40.75,0,0,1-29,12Zm0-75.12a34.07,34.07,0,1,0,24.1,10,33.82,33.82,0,0,0-24.1-10Z" transform="translate(-10.53 -15.37)"/><path class="cls-1" d="M68.43,68.34a3.47,3.47,0,0,1-2.46-1L51.56,52.91,37.15,67.32a3.49,3.49,0,0,1-4.93-4.93L49.09,45.51a3.58,3.58,0,0,1,4.93,0L70.9,62.39a3.49,3.49,0,0,1-2.47,6Z" transform="translate(-10.53 -15.37)"/></svg>