<svg id="Слой_1" data-name="Слой 1" xmlns="http://www.w3.org/2000/svg" viewBox="0 0 79.63 80.98"><defs><style>.cls-1{fill:#707070;}</style></defs><title>поиск</title><path class="cls-1" d="M49.11,83.52A34.75,34.75,0,1,1,83.86,48.78,34.78,34.78,0,0,1,49.11,83.52Zm0-62.52A27.78,27.78,0,1,0,76.89,48.78,27.83,27.83,0,0,0,49.11,21Z" transform="translate(-14.37 -14.03)"/><path class="cls-1" d="M90.51,95a3.47,3.47,0,0,1-2.46-1L68.64,74.58a3.49,3.49,0,0,1,4.93-4.93L93,89.06a3.49,3.49,0,0,1-2.47,6Z" transform="translate(-14.37 -14.03)"/></svg>